{
  "extensionsUsed": [
    "KHR_lights_punctual"
  ],
  "accessors": [
    {
      "bufferView": 0,
      "componentType": 5126,
      "count": 121,
      "type": "VEC3",
      "max": [
        5.0,
        1.1102230246251565E-16,
        5.0
      ],
      "min": [
        -5.0,
        -1.1102230246251565E-16,
        -5.0
      ]
    },
    {
      "bufferView": 1,
      "componentType": 5126,
      "count": 121,
      "type": "VEC3",
      "max": [
        0.0,
        1.0,
        0.0
      ],
      "min": [
        0.0,
        1.0,
        0.0
      ]
    },
    {
      "bufferView": 2,
      "componentType": 5126,
      "count": 121,
      "type": "VEC4",
      "max": [
        1.0,
        0.0,
        0.0,
        1.0
      ],
      "min": [
        1.0,
        0.0,
        0.0,
        1.0
      ]
    },
    {
      "bufferView": 3,
      "componentType": 5126,
      "count": 121,
      "type": "VEC2",
      "max": [
        1.0,
        1.0
      ],
      "min": [
        0.0,
        0.0
      ]
    },
    {
      "bufferView": 4,
      "componentType": 5121,
      "count": 600,
      "type": "SCALAR",
      "max": [
        120.0
      ],
      "min": [
        0.0
      ]
    },
    {
      "bufferView": 5,
      "componentType": 5126,
      "count": 121,
      "type": "VEC3",
      "max": [
        5.0,
        1.1102230246251565E-16,
        5.0
      ],
      "min": [
        -5.0,
        -1.1102230246251565E-16,
        -5.0
      ]
    },
    {
      "bufferView": 6,
      "componentType": 5126,
      "count": 121,
      "type": "VEC3",
      "max": [
        0.0,
        1.0,
        0.0
      ],
      "min": [
        0.0,
        1.0,
        0.0
      ]
    },
    {
      "bufferView": 7,
      "componentType": 5126,
      "count": 121,
      "type": "VEC4",
      "max": [
        1.0,
        0.0,
        0.0,
        1.0
      ],
      "min": [
        1.0,
        0.0,
        0.0,
        1.0
      ]
    },
    {
      "bufferView": 8,
      "componentType": 5126,
      "count": 121,
      "type": "VEC2",
      "max": [
        1.0,
        1.0
      ],
      "min": [
        0.0,
        0.0
      ]
    },
    {
      "bufferView": 9,
      "componentType": 5121,
      "count": 600,
      "type": "SCALAR",
      "max": [
        120.0
      ],
      "min": [
        0.0
      ]
    },
    {
      "bufferView": 10,
      "componentType": 5126,
      "count": 550,
      "type": "VEC3",
      "max": [
        0.5,
        1.0,
        0.5
      ],
      "min": [
        -0.5,
        -1.0,
        -0.5
      ]
    },
    {
      "bufferView": 11,
      "componentType": 5126,
      "count": 550,
      "type": "VEC3",
      "max": [
        0.99871253967285156,
        1.0,
        0.99871253967285156
      ],
      "min": [
        -0.99871253967285156,
        -0.99999916553497314,
        -0.99871253967285156
      ]
    },
    {
      "bufferView": 12,
      "componentType": 5126,
      "count": 550,
      "type": "VEC4",
      "max": [
        1.0,
        0.0303095281124115,
        1.0,
        1.0
      ],
      "min": [
        -1.0,
        -0.031331468373537064,
        -1.0,
        -1.0
      ]
    },
    {
      "bufferView": 13,
      "componentType": 5126,
      "count": 550,
      "type": "VEC2",
      "max": [
        0.99892324209213257,
        0.99884068965911865
      ],
      "min": [
        -0.0010808706283569336,
        -5.3644180297851563E-06
      ]
    },
    {
      "bufferView": 14,
      "componentType": 5126,
      "count": 550,
      "type": "VEC2",
      "max": [
        0.99924451112747192,
        1.0
      ],
      "min": [
        0.0,
        0.20864897966384888
      ]
    },
    {
      "bufferView": 15,
      "componentType": 5123,
      "count": 2496,
      "type": "SCALAR",
      "max": [
        549.0
      ],
      "min": [
        0.0
      ]
    },
    {
      "bufferView": 16,
      "componentType": 5126,
      "count": 24,
      "type": "VEC3",
      "max": [
        0.5,
        0.5,
        0.5
      ],
      "min": [
        -0.5,
        -0.5,
        -0.5
      ]
    },
    {
      "bufferView": 17,
      "componentType": 5126,
      "count": 24,
      "type": "VEC3",
      "max": [
        1.0,
        1.0,
        1.0
      ],
      "min": [
        -1.0,
        -1.0,
        -1.0
      ]
    },
    {
      "bufferView": 18,
      "componentType": 5126,
      "count": 24,
      "type": "VEC4",
      "max": [
        1.0,
        0.0,
        1.0,
        1.0
      ],
      "min": [
        0.0,
        0.0,
        -1.0,
        1.0
      ]
    },
    {
      "bufferView": 19,
      "componentType": 5126,
      "count": 24,
      "type": "VEC2",
      "max": [
        1.0,
        1.0
      ],
      "min": [
        0.0,
        0.0
      ]
    },
    {
      "bufferView": 20,
      "componentType": 5126,
      "count": 24,
      "type": "VEC2",
      "max": [
        0.9966580867767334,
        0.99594426155090332
      ],
      "min": [
        0.0040557663887739182,
        0.34716415405273438
      ]
    },
    {
      "bufferView": 21,
      "componentType": 5121,
      "count": 36,
      "type": "SCALAR",
      "max": [
        23.0
      ],
      "min": [
        0.0
      ]
    },
    {
      "bufferView": 22,
      "componentType": 5126,
      "count": 515,
      "type": "VEC3",
      "max": [
        0.5,
        0.5,
        0.5
      ],
      "min": [
        -0.5,
        -0.5,
        -0.5
      ]
    },
    {
      "bufferView": 23,
      "componentType": 5126,
      "count": 515,
      "type": "VEC3",
      "max": [
        0.99997496604919434,
        1.0,
        0.9999769926071167
      ],
      "min": [
        -0.99997496604919434,
        -1.0,
        -0.99997353553771973
      ]
    },
    {
      "bufferView": 24,
      "componentType": 5126,
      "count": 515,
      "type": "VEC4",
      "max": [
        1.0,
        0.056131001561880112,
        1.0,
        1.0
      ],
      "min": [
        -1.0,
        -0.065983392298221588,
        -1.0,
        -1.0
      ]
    },
    {
      "bufferView": 25,
      "componentType": 5126,
      "count": 515,
      "type": "VEC2",
      "max": [
        0.99833369255065918,
        0.98237103223800659
      ],
      "min": [
        -0.00092136859893798828,
        0.024108767509460449
      ]
    },
    {
      "bufferView": 26,
      "componentType": 5126,
      "count": 515,
      "type": "VEC2",
      "max": [
        1.0000003576278687,
        1.0
      ],
      "min": [
        0.0,
        0.34614646434783936
      ]
    },
    {
      "bufferView": 27,
      "componentType": 5123,
      "count": 2304,
      "type": "SCALAR",
      "max": [
        514.0
      ],
      "min": [
        0.0
      ]
    },
    {
      "bufferView": 28,
      "componentType": 5126,
      "count": 88,
      "type": "VEC3",
      "max": [
        0.5,
        1.0,
        0.50000005960464478
      ],
      "min": [
        -0.50000011920928955,
        -1.0,
        -0.5000002384185791
      ]
    },
    {
      "bufferView": 29,
      "componentType": 5126,
      "count": 88,
      "type": "VEC3",
      "max": [
        1.0,
        1.0,
        1.0
      ],
      "min": [
        -1.0,
        -1.0,
        -1.0
      ]
    },
    {
      "bufferView": 30,
      "componentType": 5126,
      "count": 88,
      "type": "VEC4",
      "max": [
        1.0,
        0.0,
        1.0,
        1.0
      ],
      "min": [
        -1.0,
        0.0,
        -1.0,
        1.0
      ]
    },
    {
      "bufferView": 31,
      "componentType": 5126,
      "count": 88,
      "type": "VEC2",
      "max": [
        0.99974912405014038,
        0.99954628944396973
      ],
      "min": [
        0.00069368560798466206,
        0.00056922435760498047
      ]
    },
    {
      "bufferView": 32,
      "componentType": 5126,
      "count": 88,
      "type": "VEC2",
      "max": [
        0.99716836214065552,
        0.99739980697631836
      ],
      "min": [
        0.0043606190010905266,
        0.0021193623542785645
      ]
    },
    {
      "bufferView": 33,
      "componentType": 5121,
      "count": 240,
      "type": "SCALAR",
      "max": [
        87.0
      ],
      "min": [
        0.0
      ]
    },
    {
      "bufferView": 34,
      "componentType": 5126,
      "count": 4,
      "type": "VEC3",
      "max": [
        45.0,
        45.0,
        0.0
      ],
      "min": [
        -45.0,
        -45.0,
        0.0
      ]
    },
    {
      "bufferView": 35,
      "componentType": 5126,
      "count": 4,
      "type": "VEC3",
      "max": [
        0.0,
        0.0,
        -1.0
      ],
      "min": [
        0.0,
        0.0,
        -1.0
      ]
    },
    {
      "bufferView": 36,
      "componentType": 5126,
      "count": 4,
      "type": "VEC2",
      "max": [
        1.0,
        1.0
      ],
      "min": [
        0.0,
        0.0
      ]
    },
    {
      "bufferView": 37,
      "componentType": 5121,
      "count": 6,
      "type": "SCALAR",
      "max": [
        3.0
      ],
      "min": [
        0.0
      ]
    },
    {
      "bufferView": 38,
      "componentType": 5126,
      "count": 4,
      "type": "VEC3",
      "max": [
        0.5,
        0.5,
        3.0616168005906746E-17
      ],
      "min": [
        -0.5,
        -0.5,
        -3.0616168005906746E-17
      ]
    },
    {
      "bufferView": 39,
      "componentType": 5126,
      "count": 4,
      "type": "VEC3",
      "max": [
        0.0,
        0.0,
        -1.0
      ],
      "min": [
        0.0,
        0.0,
        -1.0
      ]
    },
    {
      "bufferView": 40,
      "componentType": 5126,
      "count": 4,
      "type": "VEC4",
      "max": [
        -1.0,
        0.0,
        0.0,
        1.0
      ],
      "min": [
        -1.0,
        0.0,
        0.0,
        1.0
      ]
    },
    {
      "bufferView": 41,
      "componentType": 5126,
      "count": 4,
      "type": "VEC2",
      "max": [
        1.0,
        1.0
      ],
      "min": [
        0.0,
        0.0
      ]
    },
    {
      "bufferView": 42,
      "componentType": 5121,
      "count": 6,
      "type": "SCALAR",
      "max": [
        3.0
      ],
      "min": [
        0.0
      ]
    },
    {
      "bufferView": 43,
      "componentType": 5126,
      "count": 4,
      "type": "VEC3",
      "max": [
        45.0,
        45.0,
        0.0
      ],
      "min": [
        -45.0,
        -45.0,
        0.0
      ]
    },
    {
      "bufferView": 44,
      "componentType": 5126,
      "count": 4,
      "type": "VEC3",
      "max": [
        0.0,
        0.0,
        -1.0
      ],
      "min": [
        0.0,
        0.0,
        -1.0
      ]
    },
    {
      "bufferView": 45,
      "componentType": 5126,
      "count": 4,
      "type": "VEC2",
      "max": [
        1.0,
        1.0
      ],
      "min": [
        0.0,
        0.0
      ]
    },
    {
      "bufferView": 46,
      "componentType": 5121,
      "count": 6,
      "type": "SCALAR",
      "max": [
        3.0
      ],
      "min": [
        0.0
      ]
    },
    {
      "bufferView": 47,
      "componentType": 5126,
      "count": 4,
      "type": "VEC3",
      "max": [
        112.5,
        112.5,
        0.0
      ],
      "min": [
        -112.5,
        -112.5,
        0.0
      ]
    },
    {
      "bufferView": 48,
      "componentType": 5126,
      "count": 4,
      "type": "VEC3",
      "max": [
        0.0,
        0.0,
        -1.0
      ],
      "min": [
        0.0,
        0.0,
        -1.0
      ]
    },
    {
      "bufferView": 49,
      "componentType": 5126,
      "count": 4,
      "type": "VEC2",
      "max": [
        1.0,
        1.0
      ],
      "min": [
        0.0,
        0.0
      ]
    },
    {
      "bufferView": 50,
      "componentType": 5121,
      "count": 6,
      "type": "SCALAR",
      "max": [
        3.0
      ],
      "min": [
        0.0
      ]
    },
    {
      "bufferView": 51,
      "componentType": 5126,
      "count": 4,
      "type": "VEC3",
      "max": [
        50.0,
        50.0,
        0.0
      ],
      "min": [
        -50.0,
        -50.0,
        0.0
      ]
    },
    {
      "bufferView": 52,
      "componentType": 5126,
      "count": 4,
      "type": "VEC3",
      "max": [
        0.0,
        0.0,
        -1.0
      ],
      "min": [
        0.0,
        0.0,
        -1.0
      ]
    },
    {
      "bufferView": 53,
      "componentType": 5126,
      "count": 4,
      "type": "VEC2",
      "max": [
        1.0,
        1.0
      ],
      "min": [
        0.0,
        0.0
      ]
    },
    {
      "bufferView": 54,
      "componentType": 5121,
      "count": 6,
      "type": "SCALAR",
      "max": [
        3.0
      ],
      "min": [
        0.0
      ]
    },
    {
      "bufferView": 55,
      "componentType": 5126,
      "count": 4,
      "type": "VEC3",
      "max": [
        0.10462299734354019,
        0.10462299734354019,
        0.0
      ],
      "min": [
        -0.10462299734354019,
        -0.10462299734354019,
        0.0
      ]
    },
    {
      "bufferView": 56,
      "componentType": 5126,
      "count": 4,
      "type": "VEC3",
      "max": [
        0.0,
        0.0,
        -1.0
      ],
      "min": [
        0.0,
        0.0,
        -1.0
      ]
    },
    {
      "bufferView": 57,
      "componentType": 5126,
      "count": 4,
      "type": "VEC2",
      "max": [
        1.0,
        1.0
      ],
      "min": [
        0.0,
        0.0
      ]
    },
    {
      "bufferView": 58,
      "componentType": 5121,
      "count": 6,
      "type": "SCALAR",
      "max": [
        3.0
      ],
      "min": [
        0.0
      ]
    },
    {
      "bufferView": 59,
      "componentType": 5126,
      "count": 4,
      "type": "VEC3",
      "max": [
        0.0,
        0.0,
        0.0
      ],
      "min": [
        0.0,
        0.0,
        0.0
      ]
    },
    {
      "bufferView": 60,
      "componentType": 5126,
      "count": 4,
      "type": "VEC3",
      "max": [
        0.0,
        0.0,
        -1.0
      ],
      "min": [
        0.0,
        0.0,
        -1.0
      ]
    },
    {
      "bufferView": 61,
      "componentType": 5126,
      "count": 4,
      "type": "VEC2",
      "max": [
        1.0,
        1.0
      ],
      "min": [
        0.0,
        0.0
      ]
    },
    {
      "bufferView": 62,
      "componentType": 5121,
      "count": 6,
      "type": "SCALAR",
      "max": [
        3.0
      ],
      "min": [
        0.0
      ]
    },
    {
      "bufferView": 63,
      "componentType": 5126,
      "count": 4,
      "type": "VEC3",
      "max": [
        0.11511627584695816,
        0.11511627584695816,
        0.0
      ],
      "min": [
        -0.11511627584695816,
        -0.11511627584695816,
        0.0
      ]
    },
    {
      "bufferView": 64,
      "componentType": 5126,
      "count": 4,
      "type": "VEC3",
      "max": [
        0.0,
        0.0,
        -1.0
      ],
      "min": [
        0.0,
        0.0,
        -1.0
      ]
    },
    {
      "bufferView": 65,
      "componentType": 5126,
      "count": 4,
      "type": "VEC2",
      "max": [
        1.0,
        1.0
      ],
      "min": [
        0.0,
        0.0
      ]
    },
    {
      "bufferView": 66,
      "componentType": 5121,
      "count": 6,
      "type": "SCALAR",
      "max": [
        3.0
      ],
      "min": [
        0.0
      ]
    },
    {
      "bufferView": 67,
      "componentType": 5126,
      "count": 4,
      "type": "VEC3",
      "max": [
        0.0,
        0.0,
        0.0
      ],
      "min": [
        0.0,
        0.0,
        0.0
      ]
    },
    {
      "bufferView": 68,
      "componentType": 5126,
      "count": 4,
      "type": "VEC3",
      "max": [
        0.0,
        0.0,
        -1.0
      ],
      "min": [
        0.0,
        0.0,
        -1.0
      ]
    },
    {
      "bufferView": 69,
      "componentType": 5126,
      "count": 4,
      "type": "VEC2",
      "max": [
        1.0,
        1.0
      ],
      "min": [
        0.0,
        0.0
      ]
    },
    {
      "bufferView": 70,
      "componentType": 5121,
      "count": 6,
      "type": "SCALAR",
      "max": [
        3.0
      ],
      "min": [
        0.0
      ]
    },
    {
      "bufferView": 71,
      "componentType": 5126,
      "count": 4,
      "type": "VEC3",
      "max": [
        0.11511627584695816,
        0.11511627584695816,
        0.0
      ],
      "min": [
        -0.11511627584695816,
        -0.11511627584695816,
        0.0
      ]
    },
    {
      "bufferView": 72,
      "componentType": 5126,
      "count": 4,
      "type": "VEC3",
      "max": [
        0.0,
        0.0,
        -1.0
      ],
      "min": [
        0.0,
        0.0,
        -1.0
      ]
    },
    {
      "bufferView": 73,
      "componentType": 5126,
      "count": 4,
      "type": "VEC2",
      "max": [
        1.0,
        1.0
      ],
      "min": [
        0.0,
        0.0
      ]
    },
    {
      "bufferView": 74,
      "componentType": 5121,
      "count": 6,
      "type": "SCALAR",
      "max": [
        3.0
      ],
      "min": [
        0.0
      ]
    },
    {
      "bufferView": 75,
      "componentType": 5126,
      "count": 4,
      "type": "VEC3",
      "max": [
        0.0,
        0.0,
        0.0
      ],
      "min": [
        0.0,
        0.0,
        0.0
      ]
    },
    {
      "bufferView": 76,
      "componentType": 5126,
      "count": 4,
      "type": "VEC3",
      "max": [
        0.0,
        0.0,
        -1.0
      ],
      "min": [
        0.0,
        0.0,
        -1.0
      ]
    },
    {
      "bufferView": 77,
      "componentType": 5126,
      "count": 4,
      "type": "VEC2",
      "max": [
        1.0,
        1.0
      ],
      "min": [
        0.0,
        0.0
      ]
    },
    {
      "bufferView": 78,
      "componentType": 5121,
      "count": 6,
      "type": "SCALAR",
      "max": [
        3.0
      ],
      "min": [
        0.0
      ]
    }
  ],
  "asset": {
    "version": "2.0"
  },
  "buffers": [
    {
      "uri": "scene.bin",
      "byteLength": 90142
    }
  ],
  "bufferViews": [
    {
      "buffer": 0,
      "byteLength": 1452
    },
    {
      "buffer": 0,
      "byteOffset": 1452,
      "byteLength": 1452
    },
    {
      "buffer": 0,
      "byteOffset": 2904,
      "byteLength": 1936
    },
    {
      "buffer": 0,
      "byteOffset": 4840,
      "byteLength": 968
    },
    {
      "buffer": 0,
      "byteOffset": 5808,
      "byteLength": 600
    },
    {
      "buffer": 0,
      "byteOffset": 6408,
      "byteLength": 1452
    },
    {
      "buffer": 0,
      "byteOffset": 7860,
      "byteLength": 1452
    },
    {
      "buffer": 0,
      "byteOffset": 9312,
      "byteLength": 1936
    },
    {
      "buffer": 0,
      "byteOffset": 11248,
      "byteLength": 968
    },
    {
      "buffer": 0,
      "byteOffset": 12216,
      "byteLength": 600
    },
    {
      "buffer": 0,
      "byteOffset": 12816,
      "byteLength": 6600
    },
    {
      "buffer": 0,
      "byteOffset": 19416,
      "byteLength": 6600
    },
    {
      "buffer": 0,
      "byteOffset": 26016,
      "byteLength": 8800
    },
    {
      "buffer": 0,
      "byteOffset": 34816,
      "byteLength": 4400
    },
    {
      "buffer": 0,
      "byteOffset": 39216,
      "byteLength": 4400
    },
    {
      "buffer": 0,
      "byteOffset": 43616,
      "byteLength": 4992
    },
    {
      "buffer": 0,
      "byteOffset": 48608,
      "byteLength": 288
    },
    {
      "buffer": 0,
      "byteOffset": 48896,
      "byteLength": 288
    },
    {
      "buffer": 0,
      "byteOffset": 49184,
      "byteLength": 384
    },
    {
      "buffer": 0,
      "byteOffset": 49568,
      "byteLength": 192
    },
    {
      "buffer": 0,
      "byteOffset": 49760,
      "byteLength": 192
    },
    {
      "buffer": 0,
      "byteOffset": 49952,
      "byteLength": 36
    },
    {
      "buffer": 0,
      "byteOffset": 49988,
      "byteLength": 6180
    },
    {
      "buffer": 0,
      "byteOffset": 56168,
      "byteLength": 6180
    },
    {
      "buffer": 0,
      "byteOffset": 62348,
      "byteLength": 8240
    },
    {
      "buffer": 0,
      "byteOffset": 70588,
      "byteLength": 4120
    },
    {
      "buffer": 0,
      "byteOffset": 74708,
      "byteLength": 4120
    },
    {
      "buffer": 0,
      "byteOffset": 78828,
      "byteLength": 4608
    },
    {
      "buffer": 0,
      "byteOffset": 83436,
      "byteLength": 1056
    },
    {
      "buffer": 0,
      "byteOffset": 84492,
      "byteLength": 1056
    },
    {
      "buffer": 0,
      "byteOffset": 85548,
      "byteLength": 1408
    },
    {
      "buffer": 0,
      "byteOffset": 86956,
      "byteLength": 704
    },
    {
      "buffer": 0,
      "byteOffset": 87660,
      "byteLength": 704
    },
    {
      "buffer": 0,
      "byteOffset": 88364,
      "byteLength": 240
    },
    {
      "buffer": 0,
      "byteOffset": 88604,
      "byteLength": 48
    },
    {
      "buffer": 0,
      "byteOffset": 88652,
      "byteLength": 48
    },
    {
      "buffer": 0,
      "byteOffset": 88700,
      "byteLength": 32
    },
    {
      "buffer": 0,
      "byteOffset": 88732,
      "byteLength": 6
    },
    {
      "buffer": 0,
      "byteOffset": 88738,
      "byteLength": 48
    },
    {
      "buffer": 0,
      "byteOffset": 88786,
      "byteLength": 48
    },
    {
      "buffer": 0,
      "byteOffset": 88834,
      "byteLength": 64
    },
    {
      "buffer": 0,
      "byteOffset": 88898,
      "byteLength": 32
    },
    {
      "buffer": 0,
      "byteOffset": 88930,
      "byteLength": 6
    },
    {
      "buffer": 0,
      "byteOffset": 88936,
      "byteLength": 48
    },
    {
      "buffer": 0,
      "byteOffset": 88984,
      "byteLength": 48
    },
    {
      "buffer": 0,
      "byteOffset": 89032,
      "byteLength": 32
    },
    {
      "buffer": 0,
      "byteOffset": 89064,
      "byteLength": 6
    },
    {
      "buffer": 0,
      "byteOffset": 89070,
      "byteLength": 48
    },
    {
      "buffer": 0,
      "byteOffset": 89118,
      "byteLength": 48
    },
    {
      "buffer": 0,
      "byteOffset": 89166,
      "byteLength": 32
    },
    {
      "buffer": 0,
      "byteOffset": 89198,
      "byteLength": 6
    },
    {
      "buffer": 0,
      "byteOffset": 89204,
      "byteLength": 48
    },
    {
      "buffer": 0,
      "byteOffset": 89252,
      "byteLength": 48
    },
    {
      "buffer": 0,
      "byteOffset": 89300,
      "byteLength": 32
    },
    {
      "buffer": 0,
      "byteOffset": 89332,
      "byteLength": 6
    },
    {
      "buffer": 0,
      "byteOffset": 89338,
      "byteLength": 48
    },
    {
      "buffer": 0,
      "byteOffset": 89386,
      "byteLength": 48
    },
    {
      "buffer": 0,
      "byteOffset": 89434,
      "byteLength": 32
    },
    {
      "buffer": 0,
      "byteOffset": 89466,
      "byteLength": 6
    },
    {
      "buffer": 0,
      "byteOffset": 89472,
      "byteLength": 48
    },
    {
      "buffer": 0,
      "byteOffset": 89520,
      "byteLength": 48
    },
    {
      "buffer": 0,
      "byteOffset": 89568,
      "byteLength": 32
    },
    {
      "buffer": 0,
      "byteOffset": 89600,
      "byteLength": 6
    },
    {
      "buffer": 0,
      "byteOffset": 89606,
      "byteLength": 48
    },
    {
      "buffer": 0,
      "byteOffset": 89654,
      "byteLength": 48
    },
    {
      "buffer": 0,
      "byteOffset": 89702,
      "byteLength": 32
    },
    {
      "buffer": 0,
      "byteOffset": 89734,
      "byteLength": 6
    },
    {
      "buffer": 0,
      "byteOffset": 89740,
      "byteLength": 48
    },
    {
      "buffer": 0,
      "byteOffset": 89788,
      "byteLength": 48
    },
    {
      "buffer": 0,
      "byteOffset": 89836,
      "byteLength": 32
    },
    {
      "buffer": 0,
      "byteOffset": 89868,
      "byteLength": 6
    },
    {
      "buffer": 0,
      "byteOffset": 89874,
      "byteLength": 48
    },
    {
      "buffer": 0,
      "byteOffset": 89922,
      "byteLength": 48
    },
    {
      "buffer": 0,
      "byteOffset": 89970,
      "byteLength": 32
    },
    {
      "buffer": 0,
      "byteOffset": 90002,
      "byteLength": 6
    },
    {
      "buffer": 0,
      "byteOffset": 90008,
      "byteLength": 48
    },
    {
      "buffer": 0,
      "byteOffset": 90056,
      "byteLength": 48
    },
    {
      "buffer": 0,
      "byteOffset": 90104,
      "byteLength": 32
    },
    {
      "buffer": 0,
      "byteOffset": 90136,
      "byteLength": 6
    }
  ],
  "cameras": [
    {
      "perspective": {
        "aspectRatio": 1.515702486038208,
        "yfov": 1.0471975803375244,
        "zfar": 998.65380859375,
        "znear": 0.0099999997764825821
      },
      "type": "perspective",
      "name": "Main Camera"
    }
  ],
  "images": [
    {
      "uri": "371857150Wrist_Button_UIMain.png",
      "name": "Wrist_Button_UI"
    },
    {
      "uri": "371857150DrawingCanvasMain.png",
      "name": "DrawingCanvas"
    },
    {
      "uri": "371857150Touchpad_FlatMain.png",
      "name": "Touchpad_Flat"
    },
    {
      "uri": "371857150Menu_CanvasMain.png",
      "name": "Menu_Canvas"
    },
    {
      "uri": "371857150HeadingMain.png",
      "name": "Heading"
    },
    {
      "uri": "371857150InformationLogMain.png",
      "name": "InformationLog"
    },
    {
      "uri": "371857150HeadingMain.png",
      "name": "Heading"
    },
    {
      "uri": "371857150ExceptionLogMain.png",
      "name": "ExceptionLog"
    },
    {
      "uri": "371857150HeaderMain.png",
      "name": "Header"
    },
    {
      "uri": "371857150WarningLogMain.png",
      "name": "WarningLog"
    }
  ],
  "materials": [
    {
      "pbrMetallicRoughness": {
        "baseColorFactor": [
          0.5,
          0.5,
          0.5,
          1.0
        ],
        "metallicFactor": 0.0,
        "roughnessFactor": 0.5
      },
      "name": "Lit"
    },
    {
      "pbrMetallicRoughness": {
        "metallicFactor": 0.0,
        "roughnessFactor": 0.5
      },
      "name": "PlayArea"
    },
    {
      "pbrMetallicRoughness": {
        "baseColorFactor": [
          0.8773585,
          0.5495906,
          0.7641292,
          1.0
        ],
        "metallicFactor": 0.0,
        "roughnessFactor": 0.5
      },
      "name": "TipPink"
    },
    {
      "pbrMetallicRoughness": {
        "metallicFactor": 0.0,
        "roughnessFactor": 0.5
      },
      "name": "No Name"
    },
    {
      "pbrMetallicRoughness": {
        "baseColorFactor": [
          0.7353569,
          0.7353569,
          0.7353569,
          1.0
        ],
        "metallicFactor": 0.0
      },
      "name": "lambert1"
    },
    {
      "pbrMetallicRoughness": {
        "baseColorTexture": {
          "index": 0
        },
        "metallicFactor": 0.0
      },
      "alphaMode": "BLEND",
      "doubleSided": true,
      "name": "Hidden/Cognitive/Canvas Export Shader"
    },
    {
      "pbrMetallicRoughness": {
        "baseColorFactor": [
          0.8941177,
          0.8431373,
          0.7803922,
          1.0
        ],
        "metallicFactor": 0.0,
        "roughnessFactor": 0.5
      },
      "name": "Moonmilk"
    },
    {
      "pbrMetallicRoughness": {
        "baseColorTexture": {
          "index": 1
        },
        "metallicFactor": 0.0
      },
      "alphaMode": "BLEND",
      "doubleSided": true,
      "name": "Hidden/Cognitive/Canvas Export Shader"
    },
    {
      "pbrMetallicRoughness": {
        "baseColorTexture": {
          "index": 2
        },
        "metallicFactor": 0.0
      },
      "alphaMode": "BLEND",
      "doubleSided": true,
      "name": "Hidden/Cognitive/Canvas Export Shader"
    },
    {
      "pbrMetallicRoughness": {
        "baseColorTexture": {
          "index": 3
        },
        "metallicFactor": 0.0
      },
      "alphaMode": "BLEND",
      "doubleSided": true,
      "name": "Hidden/Cognitive/Canvas Export Shader"
    },
    {
      "pbrMetallicRoughness": {
        "baseColorTexture": {
          "index": 4
        },
        "metallicFactor": 0.0
      },
      "alphaMode": "BLEND",
      "doubleSided": true,
      "name": "Hidden/Cognitive/Canvas Export Shader"
    },
    {
      "pbrMetallicRoughness": {
        "baseColorTexture": {
          "index": 5
        },
        "metallicFactor": 0.0
      },
      "alphaMode": "BLEND",
      "doubleSided": true,
      "name": "Hidden/Cognitive/Canvas Export Shader"
    },
    {
      "pbrMetallicRoughness": {
        "baseColorTexture": {
          "index": 6
        },
        "metallicFactor": 0.0
      },
      "alphaMode": "BLEND",
      "doubleSided": true,
      "name": "Hidden/Cognitive/Canvas Export Shader"
    },
    {
      "pbrMetallicRoughness": {
        "baseColorTexture": {
          "index": 7
        },
        "metallicFactor": 0.0
      },
      "alphaMode": "BLEND",
      "doubleSided": true,
      "name": "Hidden/Cognitive/Canvas Export Shader"
    },
    {
      "pbrMetallicRoughness": {
        "baseColorTexture": {
          "index": 8
        },
        "metallicFactor": 0.0
      },
      "alphaMode": "BLEND",
      "doubleSided": true,
      "name": "Hidden/Cognitive/Canvas Export Shader"
    },
    {
      "pbrMetallicRoughness": {
        "baseColorTexture": {
          "index": 9
        },
        "metallicFactor": 0.0
      },
      "alphaMode": "BLEND",
      "doubleSided": true,
      "name": "Hidden/Cognitive/Canvas Export Shader"
    }
  ],
  "meshes": [
    {
      "primitives": [
        {
          "attributes": {
            "POSITION": 0,
            "NORMAL": 1,
            "TANGENT": 2,
            "TEXCOORD_0": 3
          },
          "indices": 4,
          "material": 0
        }
      ],
      "name": "Ground"
    },
    {
      "primitives": [
        {
          "attributes": {
            "POSITION": 5,
            "NORMAL": 6,
            "TANGENT": 7,
            "TEXCOORD_0": 8
          },
          "indices": 9,
          "material": 0
        }
      ],
      "name": "WallPosX"
    },
    {
      "primitives": [
        {
          "attributes": {
            "POSITION": 5,
            "NORMAL": 6,
            "TANGENT": 7,
            "TEXCOORD_0": 8
          },
          "indices": 9,
          "material": 0
        }
      ],
      "name": "WallNegX"
    },
    {
      "primitives": [
        {
          "attributes": {
            "POSITION": 5,
            "NORMAL": 6,
            "TANGENT": 7,
            "TEXCOORD_0": 8
          },
          "indices": 9,
          "material": 0
        }
      ],
      "name": "WallNegZ"
    },
    {
      "primitives": [
        {
          "attributes": {
            "POSITION": 5,
            "NORMAL": 6,
            "TANGENT": 7,
            "TEXCOORD_0": 8
          },
          "indices": 9,
          "material": 0
        }
      ],
      "name": "WallPosZ"
    },
    {
      "primitives": [
        {
          "attributes": {
            "POSITION": 5,
            "NORMAL": 6,
            "TANGENT": 7,
            "TEXCOORD_0": 8
          },
          "indices": 9,
          "material": 1
        }
      ],
      "name": "Plane"
    },
    {
      "primitives": [
        {
          "attributes": {
            "POSITION": 10,
            "NORMAL": 11,
            "TANGENT": 12,
            "TEXCOORD_0": 13,
            "TEXCOORD_1": 14
          },
          "indices": 15,
          "material": 2
        }
      ],
      "name": "Capsule"
    },
    {
      "primitives": [
        {
          "attributes": {
            "POSITION": 16,
            "NORMAL": 17,
            "TANGENT": 18,
            "TEXCOORD_0": 19,
            "TEXCOORD_1": 20
          },
          "indices": 21,
          "material": 0
        }
      ],
      "name": "Cube"
    },
    {
      "primitives": [
        {
          "attributes": {
            "POSITION": 22,
            "NORMAL": 23,
            "TANGENT": 24,
            "TEXCOORD_0": 25,
            "TEXCOORD_1": 26
          },
          "indices": 27,
          "material": 3
        }
      ],
      "name": "Poke Point"
    },
    {
      "primitives": [
        {
          "attributes": {
            "POSITION": 28,
            "NORMAL": 29,
            "TANGENT": 30,
            "TEXCOORD_0": 31,
            "TEXCOORD_1": 32
          },
          "indices": 33,
          "material": 4
        }
      ],
      "name": "Cylinder"
    },
    {
      "primitives": [
        {
          "attributes": {
            "POSITION": 22,
            "NORMAL": 23,
            "TANGENT": 24,
            "TEXCOORD_0": 25,
            "TEXCOORD_1": 26
          },
          "indices": 27,
          "material": 3
        }
      ],
      "name": "Poke Point"
    },
    {
      "primitives": [
        {
          "attributes": {
            "POSITION": 28,
            "NORMAL": 29,
            "TANGENT": 30,
            "TEXCOORD_0": 31,
            "TEXCOORD_1": 32
          },
          "indices": 33,
          "material": 4
        }
      ],
      "name": "Cylinder"
    },
    {
      "primitives": [
        {
          "attributes": {
            "POSITION": 34,
            "NORMAL": 35,
            "TEXCOORD_0": 36
          },
          "indices": 37,
          "material": 5
        }
      ],
      "name": "Wrist Button UI"
    },
    {
      "primitives": [
        {
          "attributes": {
            "POSITION": 38,
            "NORMAL": 39,
            "TANGENT": 40,
            "TEXCOORD_0": 41
          },
          "indices": 42,
          "material": 6
        }
      ],
      "name": "Board_60x90"
    },
    {
      "primitives": [
        {
          "attributes": {
            "POSITION": 43,
            "NORMAL": 44,
            "TEXCOORD_0": 45
          },
          "indices": 46,
          "material": 7
        }
      ],
      "name": "DrawingCanvas"
    },
    {
      "primitives": [
        {
          "attributes": {
            "POSITION": 47,
            "NORMAL": 48,
            "TEXCOORD_0": 49
          },
          "indices": 50,
          "material": 8
        }
      ],
      "name": "Touchpad Flat"
    },
    {
      "primitives": [
        {
          "attributes": {
            "POSITION": 51,
            "NORMAL": 52,
            "TEXCOORD_0": 53
          },
          "indices": 54,
          "material": 9
        }
      ],
      "name": "Menu_Canvas"
    },
    {
      "primitives": [
        {
          "attributes": {
            "POSITION": 55,
            "NORMAL": 56,
            "TEXCOORD_0": 57
          },
          "indices": 58,
          "material": 10
        }
      ],
      "name": "Heading"
    },
    {
      "primitives": [
        {
          "attributes": {
            "POSITION": 59,
            "NORMAL": 60,
            "TEXCOORD_0": 61
          },
          "indices": 62,
          "material": 11
        }
      ],
      "name": "InformationLog"
    },
    {
      "primitives": [
        {
          "attributes": {
            "POSITION": 63,
            "NORMAL": 64,
            "TEXCOORD_0": 65
          },
          "indices": 66,
          "material": 12
        }
      ],
      "name": "Heading"
    },
    {
      "primitives": [
        {
          "attributes": {
            "POSITION": 67,
            "NORMAL": 68,
            "TEXCOORD_0": 69
          },
          "indices": 70,
          "material": 13
        }
      ],
      "name": "ExceptionLog"
    },
    {
      "primitives": [
        {
          "attributes": {
            "POSITION": 71,
            "NORMAL": 72,
            "TEXCOORD_0": 73
          },
          "indices": 74,
          "material": 14
        }
      ],
      "name": "Header"
    },
    {
      "primitives": [
        {
          "attributes": {
            "POSITION": 75,
            "NORMAL": 76,
            "TEXCOORD_0": 77
          },
          "indices": 78,
          "material": 15
        }
      ],
      "name": "WarningLog"
    }
  ],
  "nodes": [
    {
      "children": [
        1,
        8,
        10
      ],
      "name": "WorldArea"
    },
    {
      "children": [
        2,
        4,
        5,
        6,
        7
      ],
      "name": "Walls"
    },
    {
      "children": [
        3
      ],
      "translation": [
        0.0,
        -0.01,
        0.0
      ],
      "name": "Ground"
    },
    {
      "mesh": 0,
      "name": "Ground"
    },
    {
      "mesh": 1,
      "rotation": [
        0.0,
        0.0,
        -0.7071068,
        0.7071068
      ],
      "translation": [
        -5.0,
        -0.01,
        0.0
      ],
      "name": "WallPosX"
    },
    {
      "mesh": 2,
      "rotation": [
        0.0,
        0.0,
        0.7071068,
        0.7071068
      ],
      "translation": [
        5.0,
        -0.01,
        0.0
      ],
      "name": "WallNegX"
    },
    {
      "mesh": 3,
      "rotation": [
        0.5,
        -0.5,
        -0.5,
        0.5
      ],
      "translation": [
        0.0,
        -0.01,
        -5.0
      ],
      "name": "WallNegZ"
    },
    {
      "mesh": 4,
      "rotation": [
        -0.5,
        0.5,
        -0.5,
        0.5
      ],
      "translation": [
        0.0,
        -0.01,
        5.0
      ],
      "name": "WallPosZ"
    },
    {
      "children": [
        9
      ],
      "name": "CaveLighting"
    },
    {
      "rotation": [
        0.0,
        1.0,
        0.0,
        0.0
      ],
      "translation": [
        -1.326,
        1.085,
        -0.318
      ],
      "extensions": {
        "KHR_lights_punctual": {
          "light": 0
        }
      },
      "name": "Fire01"
    },
    {
      "children": [
        11
      ],
      "name": "2msqr_PlayArea"
    },
    {
      "mesh": 5,
      "scale": [
        0.2,
        1.0,
        0.2
      ],
      "name": "Plane"
    },
    {
      "children": [
        13,
        14
      ],
      "translation": [
        3.2,
        1.0,
        -0.89
      ],
      "name": "Scales"
    },
    {
      "mesh": 6,
      "translation": [
        0.449,
        0.0,
        -2.214
      ],
      "name": "Capsule"
    },
    {
      "mesh": 7,
      "translation": [
        -4.761,
        -0.5,
        0.625
      ],
      "name": "Cube"
    },
    {
      "rotation": [
        0.109381631,
        0.8754261,
        0.408217877,
        -0.234569684
      ],
      "translation": [
        0.0,
        3.0,
        0.0
      ],
      "extensions": {
        "KHR_lights_punctual": {
          "light": 1
        }
      },
      "name": "Directional Light"
    },
    {
      "children": [
        17,
        18,
        19,
        20
      ],
      "name": "XR Interaction Hands Setup"
    },
    {
      "name": "Input Action Manager"
    },
    {
      "name": "XR Interaction Manager"
    },
    {
      "name": "EventSystem"
    },
    {
      "children": [
        21,
        54,
        59
      ],
      "name": "XR Origin (XR Rig)"
    },
    {
      "children": [
        22,
        23,
        30,
        32,
        39,
        41,
        42
      ],
      "translation": [
        0.0,
        1.36144,
        0.0
      ],
      "name": "Camera Offset"
    },
    {
      "camera": 0,
      "name": "Main Camera"
    },
    {
      "children": [
        24,
        27,
        28,
        29
      ],
      "name": "Left Controller"
    },
    {
      "children": [
        25
      ],
      "name": "Poke Interactor"
    },
    {
      "children": [
        26
      ],
      "mesh": 8,
      "rotation": [
        0.04345342,
        -0.08707283,
        0.0038016832,
        0.9952465
      ],
      "scale": [
        0.01,
        0.01,
        0.01
      ],
      "translation": [
        0.005,
        -0.01,
        0.025
      ],
      "name": "Poke Point"
    },
    {
      "mesh": 9,
      "rotation": [
        0.7071068,
        0.0,
        0.0,
        0.7071068
      ],
      "scale": [
        0.5,
        3.6,
        0.5
      ],
      "translation": [
        0.0,
        -0.1,
        -4.0
      ],
      "name": "Cylinder"
    },
    {
      "name": "Direct Interactor"
    },
    {
      "translation": [
        0.0,
        -0.02,
        -0.035
      ],
      "name": "Ray Interactor"
    },
    {
      "translation": [
        0.0,
        -0.02,
        -0.035
      ],
      "name": "Teleport Interactor"
    },
    {
      "children": [
        31
      ],
      "name": "Left Controller Stabilized"
    },
    {
      "name": "Left Controller Stabilized Attach"
    },
    {
      "children": [
        33,
        36,
        37,
        38
      ],
      "name": "Right Controller"
    },
    {
      "children": [
        34
      ],
      "name": "Poke Interactor"
    },
    {
      "children": [
        35
      ],
      "mesh": 10,
      "rotation": [
        0.04345342,
        0.08707283,
        -0.0038016832,
        0.9952465
      ],
      "scale": [
        0.01,
        0.01,
        0.01
      ],
      "translation": [
        -0.005,
        -0.01,
        0.025
      ],
      "name": "Poke Point"
    },
    {
      "mesh": 11,
      "rotation": [
        0.7071068,
        0.0,
        0.0,
        0.7071068
      ],
      "scale": [
        0.5,
        3.6,
        0.5
      ],
      "translation": [
        0.0,
        -0.1,
        -4.0
      ],
      "name": "Cylinder"
    },
    {
      "name": "Direct Interactor"
    },
    {
      "translation": [
        0.0,
        -0.02,
        -0.035
      ],
      "name": "Ray Interactor"
    },
    {
      "translation": [
        0.0,
        -0.02,
        -0.035
      ],
      "name": "Teleport Interactor"
    },
    {
      "children": [
        40
      ],
      "name": "Right Controller Stabilized"
    },
    {
      "name": "Right Controller Stabilized Attach"
    },
    {
      "name": "Hand Visualizer"
    },
    {
      "children": [
        43,
        44,
        45
      ],
      "name": "Hand Menu With Button Activation"
    },
    {
      "name": "Left Hand Tracked Anchor"
    },
    {
      "name": "Right Hand Tracked Anchor"
    },
    {
      "children": [
        46
      ],
      "name": "Hand Menu Wrist Button"
    },
    {
      "children": [
        47
      ],
      "name": "Follow GameObject"
    },
    {
      "children": [
        48,
        49,
        53
      ],
      "rotation": [
        0.7071068,
        0.0,
        0.0,
        0.7071068
      ],
      "scale": [
        0.00046875,
        0.00046875,
        0.00046875
      ],
      "translation": [
        0.0,
        -0.01,
        0.0
      ],
      "name": "Wrist Button UI"
    },
    {
      "translation": [
        40.0,
        40.0,
        20.0
      ],
      "name": "Text Button Background"
    },
    {
      "children": [
        50,
        52
      ],
      "translation": [
        40.0,
        40.0,
        20.0
      ],
      "name": "Text Button"
    },
    {
      "children": [
        51
      ],
      "translation": [
        0.0,
        0.0,
        -25.0
      ],
      "name": "Image"
    },
    {
      "scale": [
        0.1,
        0.1,
        0.1
      ],
      "translation": [
        -40.0,
        -40.0,
        0.0
      ],
      "name": "Text"
    },
    {
      "translation": [
        -40.0,
        -40.0,
        0.0
      ],
      "name": "Audio"
    },
    {
      "mesh": 12,
      "translation": [
        0.0,
        -1.89478077E-12,
        -1.986822E-05
      ],
      "name": "Wrist Button UI"
    },
    {
      "children": [
        55,
        56,
        57,
        58
      ],
      "name": "Locomotion System"
    },
    {
      "name": "Turn"
    },
    {
      "name": "Move"
    },
    {
      "name": "Teleportation"
    },
    {
      "name": "Climb"
    },
    {
      "name": "Hands Smoothing Post Processor"
    },
    {
      "children": [
        61,
        63
      ],
      "scale": [
        0.01,
        0.01,
        0.01
      ],
      "translation": [
        0.0,
        1.254,
        0.493
      ],
      "name": "DrawingCanvas"
    },
    {
      "children": [
        62
      ],
      "name": "BoardElement"
    },
    {
      "mesh": 13,
      "scale": [
        60.0,
        90.0,
        1.0
      ],
      "translation": [
        0.0,
        0.0,
        -0.1
      ],
      "name": "Board_60x90"
    },
    {
      "mesh": 14,
      "translation": [
        -1500.0,
        0.0,
        0.0
      ],
      "name": "DrawingCanvas"
    },
    {
      "children": [
        65,
        72,
        74,
        78,
        134
      ],
      "rotation": [
        0.0,
        0.6947124,
        0.0,
        0.719287634
      ],
      "scale": [
        0.01,
        0.01,
        0.01
      ],
      "translation": [
        0.513,
        1.257,
        0.026
      ],
      "name": "Menu_Canvas"
    },
    {
      "children": [
        66,
        68,
        70
      ],
      "name": "SaveImageIcons"
    },
    {
      "children": [
        67
      ],
      "translation": [
        36.9,
        37.3,
        0.0
      ],
      "name": "SaveImageButton 1"
    },
    {
      "name": "Text (TMP)"
    },
    {
      "children": [
        69
      ],
      "translation": [
        15.2,
        37.4,
        0.0
      ],
      "name": "SaveImageButton 2"
    },
    {
      "name": "Text (TMP)"
    },
    {
      "children": [
        71
      ],
      "translation": [
        -6.3,
        37.4,
        0.0
      ],
      "name": "SaveImageButton 3"
    },
    {
      "name": "Text (TMP)"
    },
    {
      "children": [
        73
      ],
      "translation": [
        -21.8,
        -35.8,
        0.0
      ],
      "name": "ClearImageButton"
    },
    {
      "name": "Text (TMP)"
    },
    {
      "children": [
        75
      ],
      "name": "InputField (TMP)"
    },
    {
      "children": [
        76,
        77
      ],
      "translation": [
        0.0,
        -0.5,
        0.0
      ],
      "name": "Text Area"
    },
    {
      "name": "Placeholder"
    },
    {
      "name": "Text"
    },
    {
      "children": [
        79,
        80,
        93,
        133
      ],
      "rotation": [
        -0.008726465,
        0.0,
        0.0,
        0.999962
      ],
      "scale": [
        0.1,
        0.1,
        0.1
      ],
      "translation": [
        26.84,
        -26.76,
        2.14
      ],
      "name": "Touchpad Flat"
    },
    {
      "translation": [
        0.0,
        0.0,
        -1.1920929E-05
      ],
      "name": "Background Back"
    },
    {
      "children": [
        81,
        85,
        89
      ],
      "name": "Backgrounds"
    },
    {
      "children": [
        82,
        83,
        84
      ],
      "translation": [
        0.0,
        64.0,
        0.0
      ],
      "name": "Row 1"
    },
    {
      "translation": [
        64.0,
        0.0,
        0.0
      ],
      "name": "Background"
    },
    {
      "name": "Background (1)"
    },
    {
      "translation": [
        -64.0,
        0.0,
        0.0
      ],
      "name": "Background (2)"
    },
    {
      "children": [
        86,
        87,
        88
      ],
      "name": "Row 2"
    },
    {
      "translation": [
        64.0,
        0.0,
        0.0
      ],
      "name": "Background"
    },
    {
      "name": "Background (1)"
    },
    {
      "translation": [
        -64.0,
        0.0,
        0.0
      ],
      "name": "Background (2)"
    },
    {
      "children": [
        90,
        91,
        92
      ],
      "translation": [
        0.0,
        -64.0,
        0.0
      ],
      "name": "Row 3"
    },
    {
      "translation": [
        64.0,
        0.0,
        0.0
      ],
      "name": "Background"
    },
    {
      "name": "Background (1)"
    },
    {
      "translation": [
        -64.0,
        0.0,
        0.0
      ],
      "name": "Background (2)"
    },
    {
      "children": [
        94,
        107,
        120
      ],
      "translation": [
        0.0,
        0.0,
        1.1920929E-05
      ],
      "name": "Buttons"
    },
    {
      "children": [
        95,
        99,
        103
      ],
      "translation": [
        0.0,
        64.0,
        0.0
      ],
      "name": "Row 1"
    },
    {
      "children": [
        96,
        98
      ],
      "translation": [
        64.0,
        0.0,
        0.0
      ],
      "name": "TouchPad Button 1"
    },
    {
      "children": [
        97
      ],
      "translation": [
        0.0,
        0.0,
        -20.0
      ],
      "name": "Image"
    },
    {
      "name": "Text"
    },
    {
      "name": "Audio"
    },
    {
      "children": [
        100,
        102
      ],
      "name": "TouchPad Button 2"
    },
    {
      "children": [
        101
      ],
      "translation": [
        0.0,
        0.0,
        -20.0
      ],
      "name": "Image"
    },
    {
      "name": "Text"
    },
    {
      "name": "Audio"
    },
    {
      "children": [
        104,
        106
      ],
      "translation": [
        -64.0,
        0.0,
        0.0
      ],
      "name": "TouchPad Button 3"
    },
    {
      "children": [
        105
      ],
      "translation": [
        0.0,
        0.0,
        -20.0
      ],
      "name": "Image"
    },
    {
      "name": "Text"
    },
    {
      "name": "Audio"
    },
    {
      "children": [
        108,
        112,
        116
      ],
      "name": "Row 2"
    },
    {
      "children": [
        109,
        111
      ],
      "translation": [
        64.0,
        0.0,
        0.0
      ],
      "name": "TouchPad Button 4"
    },
    {
      "children": [
        110
      ],
      "translation": [
        0.0,
        0.0,
        -20.0
      ],
      "name": "Image"
    },
    {
      "name": "Text"
    },
    {
      "name": "Audio"
    },
    {
      "children": [
        113,
        115
      ],
      "name": "TouchPad Button 5"
    },
    {
      "children": [
        114
      ],
      "translation": [
        0.0,
        0.0,
        -20.0
      ],
      "name": "Image"
    },
    {
      "name": "Text"
    },
    {
      "name": "Audio"
    },
    {
      "children": [
        117,
        119
      ],
      "translation": [
        -64.0,
        0.0,
        0.0
      ],
      "name": "TouchPad Button 6"
    },
    {
      "children": [
        118
      ],
      "translation": [
        0.0,
        0.0,
        -20.0
      ],
      "name": "Image"
    },
    {
      "name": "Text"
    },
    {
      "name": "Audio"
    },
    {
      "children": [
        121,
        125,
        129
      ],
      "translation": [
        0.0,
        -64.0,
        0.0
      ],
      "name": "Row 3"
    },
    {
      "children": [
        122,
        124
      ],
      "translation": [
        64.0,
        0.0,
        0.0
      ],
      "name": "TouchPad Button 7"
    },
    {
      "children": [
        123
      ],
      "translation": [
        0.0,
        0.0,
        -20.0
      ],
      "name": "Image"
    },
    {
      "name": "Text"
    },
    {
      "name": "Audio"
    },
    {
      "children": [
        126,
        128
      ],
      "name": "TouchPad Button 8"
    },
    {
      "children": [
        127
      ],
      "translation": [
        0.0,
        0.0,
        -20.0
      ],
      "name": "Image"
    },
    {
      "name": "Text"
    },
    {
      "name": "Audio"
    },
    {
      "children": [
        130,
        132
      ],
      "translation": [
        -64.0,
        0.0,
        0.0
      ],
      "name": "TouchPad Button 9"
    },
    {
      "children": [
        131
      ],
      "translation": [
        0.0,
        0.0,
        -20.0
      ],
      "name": "Image"
    },
    {
      "name": "Text"
    },
    {
      "name": "Audio"
    },
    {
      "mesh": 15,
      "translation": [
        -1.90734863E-05,
        2.08047226E-07,
        -1.19191136E-05
      ],
      "name": "Touchpad Flat"
    },
    {
      "mesh": 16,
      "name": "Menu_Canvas"
    },
    {
      "children": [
        136,
        139,
        142
      ],
      "rotation": [
        0.0,
        -0.7071068,
        0.0,
        0.7071068
      ],
      "scale": [
        0.5,
        0.5,
        0.1
      ],
      "translation": [
        -4.34,
        1.14,
        -2.17
      ],
      "name": "DebugLog"
    },
    {
      "children": [
        137,
        138
      ],
      "scale": [
        0.2,
        0.2,
        0.2
      ],
      "translation": [
        7.650002,
        6.02000046,
        0.0
      ],
      "name": "ExceptionLog"
    },
    {
      "translation": [
        13.62,
        3.37,
        0.0
      ],
      "name": "Heading"
    },
    {
      "translation": [
        24.55,
        4.04,
        0.0
      ],
      "name": "Icon"
    },
    {
      "children": [
        140,
        141
      ],
      "scale": [
        0.2,
        0.2,
        0.2
      ],
      "translation": [
        0.0,
        6.39,
        0.0
      ],
      "name": "InformationLog"
    },
    {
      "translation": [
        13.0,
        3.37,
        0.0
      ],
      "name": "Heading"
    },
    {
      "translation": [
        24.55,
        4.04,
        0.0
      ],
      "name": "Icon"
    },
    {
      "children": [
        143,
        144
      ],
      "scale": [
        0.2,
        0.2,
        0.2
      ],
      "translation": [
        7.65,
        2.31,
        0.0
      ],
      "name": "WarningLog"
    },
    {
      "translation": [
        13.62,
        3.37,
        0.0
      ],
      "name": "Header"
    },
    {
      "translation": [
        24.55,
        4.04,
        0.0
      ],
      "name": "Icon"
    },
    {
      "name": "Cognitive3D_Manager"
    },
    {
      "mesh": 17,
      "translation": [
        -4.34,
        4.776623,
        -0.7782673
      ],
      "name": "Heading"
    },
    {
      "mesh": 18,
      "translation": [
        -4.34,
        4.335,
        -2.17
      ],
      "name": "InformationLog"
    },
    {
      "mesh": 19,
      "translation": [
        -4.34000063,
        4.58112955,
        3.1033783
      ],
      "name": "Heading"
    },
    {
      "mesh": 20,
      "translation": [
        -4.34000063,
        4.15,
        1.6550014
      ],
      "name": "ExceptionLog"
    },
    {
      "mesh": 21,
      "translation": [
        -4.34000063,
        2.72612977,
        3.20834613
      ],
      "name": "Header"
    },
    {
      "mesh": 22,
      "translation": [
        -4.34000063,
        2.295,
        1.65500045
      ],
      "name": "WarningLog"
    }
  ],
  "samplers": [
    {}
  ],
  "scene": 0,
  "scenes": [
    {
      "nodes": [
        0,
        12,
        15,
        16,
        60,
        64,
        135,
        145,
        146,
        147,
        148,
        149,
        150,
        151
      ],
      "name": "scene"
    }
  ],
  "textures": [
    {
      "sampler": 0,
      "source": 0,
      "name": "371857150Wrist_Button_UIMain"
    },
    {
      "sampler": 0,
      "source": 1,
      "name": "371857150DrawingCanvasMain"
    },
    {
      "sampler": 0,
      "source": 2,
      "name": "371857150Touchpad_FlatMain"
    },
    {
      "sampler": 0,
      "source": 3,
      "name": "371857150Menu_CanvasMain"
    },
    {
      "sampler": 0,
      "source": 4,
      "name": "371857150HeadingMain"
    },
    {
      "sampler": 0,
      "source": 5,
      "name": "371857150InformationLogMain"
    },
    {
      "sampler": 0,
      "source": 6,
      "name": "371857150HeadingMain"
    },
    {
      "sampler": 0,
      "source": 7,
      "name": "371857150ExceptionLogMain"
    },
    {
      "sampler": 0,
      "source": 8,
      "name": "371857150HeaderMain"
    },
    {
      "sampler": 0,
      "source": 9,
      "name": "371857150WarningLogMain"
    }
  ],
  "extensions": {
    "KHR_lights_punctual": {
      "lights": [
        {
          "type": "point",
          "range": 5.0,
          "color": [
            0.807843149,
            0.4627451,
            0.295478821
          ],
          "name": "Fire01"
        },
        {
          "type": "directional",
          "color": [
            1.0,
            1.0,
            1.0
          ],
          "name": "Directional Light"
        }
      ]
    }
  }
}